<svg width="157" height="101" viewBox="0 0 157 101" fill="none" xmlns="http://www.w3.org/2000/svg">
<path d="M30.1777 63.2031H31.874V72.2646C31.874 73.4893 31.5049 74.4473 30.7666 75.1387C30.0342 75.8301 29.0557 76.1758 27.8311 76.1758C26.5596 76.1758 25.5693 75.8506 24.8604 75.2002C24.1514 74.5498 23.7969 73.6387 23.7969 72.4668H25.4844C25.4844 73.1992 25.6836 73.7705 26.082 74.1807C26.4863 74.5908 27.0693 74.7959 27.8311 74.7959C28.5283 74.7959 29.0908 74.5762 29.5186 74.1367C29.9521 73.6973 30.1719 73.082 30.1777 72.291V63.2031ZM34.0625 71.1572C34.0625 70.2256 34.2441 69.3877 34.6074 68.6436C34.9766 67.8994 35.4863 67.3252 36.1367 66.9209C36.793 66.5166 37.54 66.3145 38.3779 66.3145C39.6729 66.3145 40.7188 66.7627 41.5156 67.6592C42.3184 68.5557 42.7197 69.748 42.7197 71.2363V71.3506C42.7197 72.2764 42.541 73.1084 42.1836 73.8467C41.832 74.5791 41.3252 75.1504 40.6631 75.5605C40.0068 75.9707 39.251 76.1758 38.3955 76.1758C37.1064 76.1758 36.0605 75.7275 35.2578 74.8311C34.4609 73.9346 34.0625 72.748 34.0625 71.2715V71.1572ZM35.6973 71.3506C35.6973 72.4053 35.9404 73.252 36.4268 73.8906C36.9189 74.5293 37.5752 74.8486 38.3955 74.8486C39.2217 74.8486 39.8779 74.5264 40.3643 73.8818C40.8506 73.2314 41.0938 72.3232 41.0938 71.1572C41.0938 70.1143 40.8447 69.2705 40.3467 68.626C39.8545 67.9756 39.1982 67.6504 38.3779 67.6504C37.5752 67.6504 36.9277 67.9697 36.4355 68.6084C35.9434 69.2471 35.6973 70.1611 35.6973 71.3506ZM49.3555 67.9492C49.1094 67.9082 48.8428 67.8877 48.5557 67.8877C47.4893 67.8877 46.7656 68.3418 46.3848 69.25V76H44.7588V66.4902H46.3408L46.3672 67.5889C46.9004 66.7393 47.6562 66.3145 48.6348 66.3145C48.9512 66.3145 49.1914 66.3555 49.3555 66.4375V67.9492ZM52.3965 66.4902L52.4492 67.6855C53.1758 66.7715 54.125 66.3145 55.2969 66.3145C57.3066 66.3145 58.3203 67.4482 58.3379 69.7158V76H56.7119V69.707C56.7061 69.0215 56.5479 68.5146 56.2373 68.1865C55.9326 67.8584 55.4551 67.6943 54.8047 67.6943C54.2773 67.6943 53.8145 67.835 53.416 68.1162C53.0176 68.3975 52.707 68.7666 52.4844 69.2236V76H50.8584V66.4902H52.3965ZM66.6611 76C66.5674 75.8125 66.4912 75.4785 66.4326 74.998C65.6768 75.7832 64.7744 76.1758 63.7256 76.1758C62.7881 76.1758 62.0176 75.9121 61.4141 75.3848C60.8164 74.8516 60.5176 74.1777 60.5176 73.3633C60.5176 72.373 60.8926 71.6055 61.6426 71.0605C62.3984 70.5098 63.459 70.2344 64.8242 70.2344H66.4062V69.4873C66.4062 68.9189 66.2363 68.4678 65.8965 68.1338C65.5566 67.7939 65.0557 67.624 64.3936 67.624C63.8135 67.624 63.3271 67.7705 62.9346 68.0635C62.542 68.3564 62.3457 68.7109 62.3457 69.127H60.7109C60.7109 68.6523 60.8779 68.1953 61.2119 67.7559C61.5518 67.3105 62.0088 66.959 62.583 66.7012C63.1631 66.4434 63.7988 66.3145 64.4902 66.3145C65.5859 66.3145 66.4443 66.5898 67.0654 67.1406C67.6865 67.6855 68.0088 68.4385 68.0322 69.3994V73.7764C68.0322 74.6494 68.1436 75.3438 68.3662 75.8594V76H66.6611ZM63.9629 74.7607C64.4727 74.7607 64.9561 74.6289 65.4131 74.3652C65.8701 74.1016 66.2012 73.7588 66.4062 73.3369V71.3857H65.1318C63.1396 71.3857 62.1436 71.9688 62.1436 73.1348C62.1436 73.6445 62.3135 74.043 62.6533 74.3301C62.9932 74.6172 63.4297 74.7607 63.9629 74.7607ZM70.1855 71.166C70.1855 69.707 70.5312 68.5352 71.2227 67.6504C71.9141 66.7598 72.8193 66.3145 73.9385 66.3145C75.0518 66.3145 75.9336 66.6953 76.584 67.457V62.5H78.21V76H76.7158L76.6367 74.9805C75.9863 75.7773 75.0811 76.1758 73.9209 76.1758C72.8193 76.1758 71.9199 75.7246 71.2227 74.8223C70.5312 73.9199 70.1855 72.7422 70.1855 71.2891V71.166ZM71.8115 71.3506C71.8115 72.4287 72.0342 73.2725 72.4795 73.8818C72.9248 74.4912 73.54 74.7959 74.3252 74.7959C75.3564 74.7959 76.1094 74.333 76.584 73.4072V69.0391C76.0977 68.1426 75.3506 67.6943 74.3428 67.6943C73.5459 67.6943 72.9248 68.002 72.4795 68.6172C72.0342 69.2324 71.8115 70.1436 71.8115 71.3506ZM86.6123 76C86.5186 75.8125 86.4424 75.4785 86.3838 74.998C85.6279 75.7832 84.7256 76.1758 83.6768 76.1758C82.7393 76.1758 81.9688 75.9121 81.3652 75.3848C80.7676 74.8516 80.4688 74.1777 80.4688 73.3633C80.4688 72.373 80.8438 71.6055 81.5938 71.0605C82.3496 70.5098 83.4102 70.2344 84.7754 70.2344H86.3574V69.4873C86.3574 68.9189 86.1875 68.4678 85.8477 68.1338C85.5078 67.7939 85.0068 67.624 84.3447 67.624C83.7646 67.624 83.2783 67.7705 82.8857 68.0635C82.4932 68.3564 82.2969 68.7109 82.2969 69.127H80.6621C80.6621 68.6523 80.8291 68.1953 81.1631 67.7559C81.5029 67.3105 81.96 66.959 82.5342 66.7012C83.1143 66.4434 83.75 66.3145 84.4414 66.3145C85.5371 66.3145 86.3955 66.5898 87.0166 67.1406C87.6377 67.6855 87.96 68.4385 87.9834 69.3994V73.7764C87.9834 74.6494 88.0947 75.3438 88.3174 75.8594V76H86.6123ZM83.9141 74.7607C84.4238 74.7607 84.9072 74.6289 85.3643 74.3652C85.8213 74.1016 86.1523 73.7588 86.3574 73.3369V71.3857H85.083C83.0908 71.3857 82.0947 71.9688 82.0947 73.1348C82.0947 73.6445 82.2646 74.043 82.6045 74.3301C82.9443 74.6172 83.3809 74.7607 83.9141 74.7607ZM103.03 71.3506C103.03 72.7979 102.699 73.9639 102.037 74.8486C101.375 75.7334 100.479 76.1758 99.3477 76.1758C98.1934 76.1758 97.2852 75.8096 96.623 75.0771V79.6562H94.9971V66.4902H96.4824L96.5615 67.5449C97.2236 66.7246 98.1436 66.3145 99.3213 66.3145C100.464 66.3145 101.366 66.7451 102.028 67.6064C102.696 68.4678 103.03 69.666 103.03 71.2012V71.3506ZM101.404 71.166C101.404 70.0938 101.176 69.2471 100.719 68.626C100.262 68.0049 99.6348 67.6943 98.8379 67.6943C97.8535 67.6943 97.1152 68.1309 96.623 69.0039V73.5479C97.1094 74.415 97.8535 74.8486 98.8555 74.8486C99.6348 74.8486 100.253 74.541 100.71 73.9258C101.173 73.3047 101.404 72.3848 101.404 71.166ZM110.976 76C110.882 75.8125 110.806 75.4785 110.747 74.998C109.991 75.7832 109.089 76.1758 108.04 76.1758C107.103 76.1758 106.332 75.9121 105.729 75.3848C105.131 74.8516 104.832 74.1777 104.832 73.3633C104.832 72.373 105.207 71.6055 105.957 71.0605C106.713 70.5098 107.773 70.2344 109.139 70.2344H110.721V69.4873C110.721 68.9189 110.551 68.4678 110.211 68.1338C109.871 67.7939 109.37 67.624 108.708 67.624C108.128 67.624 107.642 67.7705 107.249 68.0635C106.856 68.3564 106.66 68.7109 106.66 69.127H105.025C105.025 68.6523 105.192 68.1953 105.526 67.7559C105.866 67.3105 106.323 66.959 106.897 66.7012C107.478 66.4434 108.113 66.3145 108.805 66.3145C109.9 66.3145 110.759 66.5898 111.38 67.1406C112.001 67.6855 112.323 68.4385 112.347 69.3994V73.7764C112.347 74.6494 112.458 75.3438 112.681 75.8594V76H110.976ZM108.277 74.7607C108.787 74.7607 109.271 74.6289 109.728 74.3652C110.185 74.1016 110.516 73.7588 110.721 73.3369V71.3857H109.446C107.454 71.3857 106.458 71.9688 106.458 73.1348C106.458 73.6445 106.628 74.043 106.968 74.3301C107.308 74.6172 107.744 74.7607 108.277 74.7607ZM119.492 67.9492C119.246 67.9082 118.979 67.8877 118.692 67.8877C117.626 67.8877 116.902 68.3418 116.521 69.25V76H114.896V66.4902H116.478L116.504 67.5889C117.037 66.7393 117.793 66.3145 118.771 66.3145C119.088 66.3145 119.328 66.3555 119.492 66.4375V67.9492ZM126.515 76C126.421 75.8125 126.345 75.4785 126.286 74.998C125.53 75.7832 124.628 76.1758 123.579 76.1758C122.642 76.1758 121.871 75.9121 121.268 75.3848C120.67 74.8516 120.371 74.1777 120.371 73.3633C120.371 72.373 120.746 71.6055 121.496 71.0605C122.252 70.5098 123.312 70.2344 124.678 70.2344H126.26V69.4873C126.26 68.9189 126.09 68.4678 125.75 68.1338C125.41 67.7939 124.909 67.624 124.247 67.624C123.667 67.624 123.181 67.7705 122.788 68.0635C122.396 68.3564 122.199 68.7109 122.199 69.127H120.564C120.564 68.6523 120.731 68.1953 121.065 67.7559C121.405 67.3105 121.862 66.959 122.437 66.7012C123.017 66.4434 123.652 66.3145 124.344 66.3145C125.439 66.3145 126.298 66.5898 126.919 67.1406C127.54 67.6855 127.862 68.4385 127.886 69.3994V73.7764C127.886 74.6494 127.997 75.3438 128.22 75.8594V76H126.515ZM123.816 74.7607C124.326 74.7607 124.81 74.6289 125.267 74.3652C125.724 74.1016 126.055 73.7588 126.26 73.3369V71.3857H124.985C122.993 71.3857 121.997 71.9688 121.997 73.1348C121.997 73.6445 122.167 74.043 122.507 74.3301C122.847 74.6172 123.283 74.7607 123.816 74.7607ZM0.822266 92.1572C0.822266 91.2256 1.00391 90.3877 1.36719 89.6436C1.73633 88.8994 2.24609 88.3252 2.89648 87.9209C3.55273 87.5166 4.2998 87.3145 5.1377 87.3145C6.43262 87.3145 7.47852 87.7627 8.27539 88.6592C9.07812 89.5557 9.47949 90.748 9.47949 92.2363V92.3506C9.47949 93.2764 9.30078 94.1084 8.94336 94.8467C8.5918 95.5791 8.08496 96.1504 7.42285 96.5605C6.7666 96.9707 6.01074 97.1758 5.15527 97.1758C3.86621 97.1758 2.82031 96.7275 2.01758 95.8311C1.2207 94.9346 0.822266 93.748 0.822266 92.2715V92.1572ZM2.45703 92.3506C2.45703 93.4053 2.7002 94.252 3.18652 94.8906C3.67871 95.5293 4.33496 95.8486 5.15527 95.8486C5.98145 95.8486 6.6377 95.5264 7.12402 94.8818C7.61035 94.2314 7.85352 93.3232 7.85352 92.1572C7.85352 91.1143 7.60449 90.2705 7.10645 89.626C6.61426 88.9756 5.95801 88.6504 5.1377 88.6504C4.33496 88.6504 3.6875 88.9697 3.19531 89.6084C2.70312 90.2471 2.45703 91.1611 2.45703 92.3506ZM24.0166 92.3506C24.0166 93.7979 23.6855 94.9639 23.0234 95.8486C22.3613 96.7334 21.4648 97.1758 20.334 97.1758C19.1797 97.1758 18.2715 96.8096 17.6094 96.0771V100.656H15.9834V87.4902H17.4688L17.5479 88.5449C18.21 87.7246 19.1299 87.3145 20.3076 87.3145C21.4502 87.3145 22.3525 87.7451 23.0146 88.6064C23.6826 89.4678 24.0166 90.666 24.0166 92.2012V92.3506ZM22.3906 92.166C22.3906 91.0938 22.1621 90.2471 21.7051 89.626C21.248 89.0049 20.6211 88.6943 19.8242 88.6943C18.8398 88.6943 18.1016 89.1309 17.6094 90.0039V94.5479C18.0957 95.415 18.8398 95.8486 19.8418 95.8486C20.6211 95.8486 21.2393 95.541 21.6963 94.9258C22.1592 94.3047 22.3906 93.3848 22.3906 92.166ZM30.6875 88.9492C30.4414 88.9082 30.1748 88.8877 29.8877 88.8877C28.8213 88.8877 28.0977 89.3418 27.7168 90.25V97H26.0908V87.4902H27.6729L27.6992 88.5889C28.2324 87.7393 28.9883 87.3145 29.9668 87.3145C30.2832 87.3145 30.5234 87.3555 30.6875 87.4375V88.9492ZM33.957 97H32.3311V87.4902H33.957V97ZM32.1992 84.9678C32.1992 84.7041 32.2783 84.4814 32.4365 84.2998C32.6006 84.1182 32.8408 84.0273 33.1572 84.0273C33.4736 84.0273 33.7139 84.1182 33.8779 84.2998C34.042 84.4814 34.124 84.7041 34.124 84.9678C34.124 85.2314 34.042 85.4512 33.8779 85.627C33.7139 85.8027 33.4736 85.8906 33.1572 85.8906C32.8408 85.8906 32.6006 85.8027 32.4365 85.627C32.2783 85.4512 32.1992 85.2314 32.1992 84.9678ZM38.0967 87.4902L38.1406 88.5449C38.8379 87.7246 39.7783 87.3145 40.9619 87.3145C42.292 87.3145 43.1973 87.8242 43.6777 88.8438C43.9941 88.3867 44.4043 88.0176 44.9082 87.7363C45.418 87.4551 46.0186 87.3145 46.71 87.3145C48.7959 87.3145 49.8564 88.4189 49.8916 90.6279V97H48.2656V90.7246C48.2656 90.0449 48.1104 89.5381 47.7998 89.2041C47.4893 88.8643 46.9678 88.6943 46.2354 88.6943C45.6318 88.6943 45.1309 88.876 44.7324 89.2393C44.334 89.5967 44.1025 90.0801 44.0381 90.6895V97H42.4033V90.7686C42.4033 89.3857 41.7266 88.6943 40.373 88.6943C39.3066 88.6943 38.5771 89.1484 38.1846 90.0566V97H36.5586V87.4902H38.0967ZM56.2988 97.1758C55.0098 97.1758 53.9609 96.7539 53.1523 95.9102C52.3438 95.0605 51.9395 93.9268 51.9395 92.5088V92.21C51.9395 91.2666 52.1182 90.4258 52.4756 89.6875C52.8389 88.9434 53.3428 88.3633 53.9873 87.9473C54.6377 87.5254 55.3408 87.3145 56.0967 87.3145C57.333 87.3145 58.2939 87.7217 58.9795 88.5361C59.665 89.3506 60.0078 90.5166 60.0078 92.0342V92.7109H53.5654C53.5889 93.6484 53.8613 94.4072 54.3828 94.9873C54.9102 95.5615 55.5781 95.8486 56.3867 95.8486C56.9609 95.8486 57.4473 95.7314 57.8457 95.4971C58.2441 95.2627 58.5928 94.9521 58.8916 94.5654L59.8848 95.3389C59.0879 96.5635 57.8926 97.1758 56.2988 97.1758ZM56.0967 88.6504C55.4404 88.6504 54.8896 88.8906 54.4443 89.3711C53.999 89.8457 53.7236 90.5137 53.6182 91.375H58.3818V91.252C58.335 90.4258 58.1123 89.7871 57.7139 89.3359C57.3154 88.8789 56.7764 88.6504 56.0967 88.6504ZM63.6641 97H62.0381V87.4902H63.6641V97ZM61.9062 84.9678C61.9062 84.7041 61.9854 84.4814 62.1436 84.2998C62.3076 84.1182 62.5479 84.0273 62.8643 84.0273C63.1807 84.0273 63.4209 84.1182 63.585 84.2998C63.749 84.4814 63.8311 84.7041 63.8311 84.9678C63.8311 85.2314 63.749 85.4512 63.585 85.627C63.4209 85.8027 63.1807 85.8906 62.8643 85.8906C62.5479 85.8906 62.3076 85.8027 62.1436 85.627C61.9854 85.4512 61.9062 85.2314 61.9062 84.9678ZM70.8711 88.9492C70.625 88.9082 70.3584 88.8877 70.0713 88.8877C69.0049 88.8877 68.2812 89.3418 67.9004 90.25V97H66.2744V87.4902H67.8564L67.8828 88.5889C68.416 87.7393 69.1719 87.3145 70.1504 87.3145C70.4668 87.3145 70.707 87.3555 70.8711 87.4375V88.9492ZM71.7676 92.1572C71.7676 91.2256 71.9492 90.3877 72.3125 89.6436C72.6816 88.8994 73.1914 88.3252 73.8418 87.9209C74.498 87.5166 75.2451 87.3145 76.083 87.3145C77.3779 87.3145 78.4238 87.7627 79.2207 88.6592C80.0234 89.5557 80.4248 90.748 80.4248 92.2363V92.3506C80.4248 93.2764 80.2461 94.1084 79.8887 94.8467C79.5371 95.5791 79.0303 96.1504 78.3682 96.5605C77.7119 96.9707 76.9561 97.1758 76.1006 97.1758C74.8115 97.1758 73.7656 96.7275 72.9629 95.8311C72.166 94.9346 71.7676 93.748 71.7676 92.2715V92.1572ZM73.4023 92.3506C73.4023 93.4053 73.6455 94.252 74.1318 94.8906C74.624 95.5293 75.2803 95.8486 76.1006 95.8486C76.9268 95.8486 77.583 95.5264 78.0693 94.8818C78.5557 94.2314 78.7988 93.3232 78.7988 92.1572C78.7988 91.1143 78.5498 90.2705 78.0518 89.626C77.5596 88.9756 76.9033 88.6504 76.083 88.6504C75.2803 88.6504 74.6328 88.9697 74.1406 89.6084C73.6484 90.2471 73.4023 91.1611 73.4023 92.3506ZM90.875 97.1758C89.5859 97.1758 88.5371 96.7539 87.7285 95.9102C86.9199 95.0605 86.5156 93.9268 86.5156 92.5088V92.21C86.5156 91.2666 86.6943 90.4258 87.0518 89.6875C87.415 88.9434 87.9189 88.3633 88.5635 87.9473C89.2139 87.5254 89.917 87.3145 90.6729 87.3145C91.9092 87.3145 92.8701 87.7217 93.5557 88.5361C94.2412 89.3506 94.584 90.5166 94.584 92.0342V92.7109H88.1416C88.165 93.6484 88.4375 94.4072 88.959 94.9873C89.4863 95.5615 90.1543 95.8486 90.9629 95.8486C91.5371 95.8486 92.0234 95.7314 92.4219 95.4971C92.8203 95.2627 93.1689 94.9521 93.4678 94.5654L94.4609 95.3389C93.6641 96.5635 92.4688 97.1758 90.875 97.1758ZM90.6729 88.6504C90.0166 88.6504 89.4658 88.8906 89.0205 89.3711C88.5752 89.8457 88.2998 90.5137 88.1943 91.375H92.958V91.252C92.9111 90.4258 92.6885 89.7871 92.29 89.3359C91.8916 88.8789 91.3525 88.6504 90.6729 88.6504ZM98.0029 87.4902L98.0469 88.5449C98.7441 87.7246 99.6846 87.3145 100.868 87.3145C102.198 87.3145 103.104 87.8242 103.584 88.8438C103.9 88.3867 104.311 88.0176 104.814 87.7363C105.324 87.4551 105.925 87.3145 106.616 87.3145C108.702 87.3145 109.763 88.4189 109.798 90.6279V97H108.172V90.7246C108.172 90.0449 108.017 89.5381 107.706 89.2041C107.396 88.8643 106.874 88.6943 106.142 88.6943C105.538 88.6943 105.037 88.876 104.639 89.2393C104.24 89.5967 104.009 90.0801 103.944 90.6895V97H102.31V90.7686C102.31 89.3857 101.633 88.6943 100.279 88.6943C99.2129 88.6943 98.4834 89.1484 98.0908 90.0566V97H96.4648V87.4902H98.0029ZM120.292 92.3506C120.292 93.7979 119.961 94.9639 119.299 95.8486C118.637 96.7334 117.74 97.1758 116.609 97.1758C115.455 97.1758 114.547 96.8096 113.885 96.0771V100.656H112.259V87.4902H113.744L113.823 88.5449C114.485 87.7246 115.405 87.3145 116.583 87.3145C117.726 87.3145 118.628 87.7451 119.29 88.6064C119.958 89.4678 120.292 90.666 120.292 92.2012V92.3506ZM118.666 92.166C118.666 91.0938 118.438 90.2471 117.98 89.626C117.523 89.0049 116.896 88.6943 116.1 88.6943C115.115 88.6943 114.377 89.1309 113.885 90.0039V94.5479C114.371 95.415 115.115 95.8486 116.117 95.8486C116.896 95.8486 117.515 95.541 117.972 94.9258C118.435 94.3047 118.666 93.3848 118.666 92.166ZM126.963 88.9492C126.717 88.9082 126.45 88.8877 126.163 88.8877C125.097 88.8877 124.373 89.3418 123.992 90.25V97H122.366V87.4902H123.948L123.975 88.5889C124.508 87.7393 125.264 87.3145 126.242 87.3145C126.559 87.3145 126.799 87.3555 126.963 87.4375V88.9492ZM132.236 97.1758C130.947 97.1758 129.898 96.7539 129.09 95.9102C128.281 95.0605 127.877 93.9268 127.877 92.5088V92.21C127.877 91.2666 128.056 90.4258 128.413 89.6875C128.776 88.9434 129.28 88.3633 129.925 87.9473C130.575 87.5254 131.278 87.3145 132.034 87.3145C133.271 87.3145 134.231 87.7217 134.917 88.5361C135.603 89.3506 135.945 90.5166 135.945 92.0342V92.7109H129.503C129.526 93.6484 129.799 94.4072 130.32 94.9873C130.848 95.5615 131.516 95.8486 132.324 95.8486C132.898 95.8486 133.385 95.7314 133.783 95.4971C134.182 95.2627 134.53 94.9521 134.829 94.5654L135.822 95.3389C135.025 96.5635 133.83 97.1758 132.236 97.1758ZM132.034 88.6504C131.378 88.6504 130.827 88.8906 130.382 89.3711C129.937 89.8457 129.661 90.5137 129.556 91.375H134.319V91.252C134.272 90.4258 134.05 89.7871 133.651 89.3359C133.253 88.8789 132.714 88.6504 132.034 88.6504ZM137.448 92.166C137.448 90.6836 137.791 89.5059 138.477 88.6328C139.162 87.7539 140.07 87.3145 141.201 87.3145C142.361 87.3145 143.267 87.7246 143.917 88.5449L143.996 87.4902H145.481V96.7715C145.481 98.002 145.115 98.9717 144.383 99.6807C143.656 100.39 142.678 100.744 141.447 100.744C140.762 100.744 140.091 100.598 139.435 100.305C138.778 100.012 138.277 99.6104 137.932 99.1006L138.775 98.125C139.473 98.9863 140.325 99.417 141.333 99.417C142.124 99.417 142.739 99.1943 143.179 98.749C143.624 98.3037 143.847 97.6768 143.847 96.8682V96.0508C143.196 96.8008 142.309 97.1758 141.184 97.1758C140.07 97.1758 139.168 96.7275 138.477 95.8311C137.791 94.9346 137.448 93.7129 137.448 92.166ZM139.083 92.3506C139.083 93.4229 139.303 94.2666 139.742 94.8818C140.182 95.4912 140.797 95.7959 141.588 95.7959C142.613 95.7959 143.366 95.3301 143.847 94.3984V90.0566C143.349 89.1484 142.602 88.6943 141.605 88.6943C140.814 88.6943 140.196 89.002 139.751 89.6172C139.306 90.2324 139.083 91.1436 139.083 92.3506ZM147.512 92.1572C147.512 91.2256 147.693 90.3877 148.057 89.6436C148.426 88.8994 148.936 88.3252 149.586 87.9209C150.242 87.5166 150.989 87.3145 151.827 87.3145C153.122 87.3145 154.168 87.7627 154.965 88.6592C155.768 89.5557 156.169 90.748 156.169 92.2363V92.3506C156.169 93.2764 155.99 94.1084 155.633 94.8467C155.281 95.5791 154.774 96.1504 154.112 96.5605C153.456 96.9707 152.7 97.1758 151.845 97.1758C150.556 97.1758 149.51 96.7275 148.707 95.8311C147.91 94.9346 147.512 93.748 147.512 92.2715V92.1572ZM149.146 92.3506C149.146 93.4053 149.39 94.252 149.876 94.8906C150.368 95.5293 151.024 95.8486 151.845 95.8486C152.671 95.8486 153.327 95.5264 153.813 94.8818C154.3 94.2314 154.543 93.3232 154.543 92.1572C154.543 91.1143 154.294 90.2705 153.796 89.626C153.304 88.9756 152.647 88.6504 151.827 88.6504C151.024 88.6504 150.377 88.9697 149.885 89.6084C149.393 90.2471 149.146 91.1611 149.146 92.3506Z" fill="black"/>
<path d="M41.776 39C42.32 39.384 43.12 39.768 44.176 40.152C45.264 40.504 46.496 40.68 47.872 40.68C49.344 40.68 50.512 40.424 51.376 39.912C52.272 39.368 52.944 38.584 53.392 37.56C53.872 36.504 54.176 35.208 54.304 33.672C54.464 32.104 54.544 30.296 54.544 28.248V10.92H59.968V28.248C59.968 30.84 59.84 33.208 59.584 35.352C59.328 37.464 58.784 39.272 57.952 40.776C57.12 42.28 55.904 43.448 54.304 44.28C52.704 45.112 50.56 45.528 47.872 45.528C44.992 45.528 42.528 44.824 40.48 43.416L41.776 39Z" fill="black"/>
<path d="M58.84 45V10.92H73.144C74.68 10.92 76.088 11.24 77.368 11.88C78.68 12.52 79.8 13.368 80.728 14.424C81.656 15.448 82.376 16.632 82.888 17.976C83.432 19.288 83.704 20.632 83.704 22.008C83.704 23.448 83.448 24.84 82.936 26.184C82.456 27.496 81.768 28.68 80.872 29.736C79.976 30.76 78.888 31.592 77.608 32.232C76.36 32.84 74.968 33.144 73.432 33.144H64.216V45H58.84ZM64.216 28.392H73.096C73.864 28.392 74.552 28.232 75.16 27.912C75.8 27.592 76.344 27.144 76.792 26.568C77.24 25.992 77.592 25.32 77.848 24.552C78.104 23.784 78.232 22.936 78.232 22.008C78.232 21.048 78.088 20.184 77.8 19.416C77.512 18.648 77.112 17.992 76.6 17.448C76.088 16.872 75.496 16.44 74.824 16.152C74.184 15.832 73.512 15.672 72.808 15.672H64.216V28.392Z" fill="black"/>
<path d="M91.241 45.47C89.3297 45.47 87.5907 45.141 86.024 44.483C84.4573 43.7937 83.11 42.8693 81.982 41.71C80.8853 40.5507 80.0237 39.2033 79.397 37.668C78.8017 36.1327 78.504 34.5033 78.504 32.78C78.504 31.0567 78.8017 29.4273 79.397 27.892C80.0237 26.3253 80.8853 24.9623 81.982 23.803C83.11 22.6123 84.4573 21.688 86.024 21.03C87.5907 20.3407 89.3453 19.996 91.288 19.996C93.1993 19.996 94.9227 20.3407 96.458 21.03C98.0247 21.7193 99.3563 22.6437 100.453 23.803C101.55 24.931 102.38 26.2627 102.944 27.798C103.539 29.302 103.837 30.8843 103.837 32.545C103.837 32.921 103.821 33.2813 103.79 33.626C103.759 33.9393 103.727 34.2057 103.696 34.425H84.003C84.097 35.5217 84.3477 36.5087 84.755 37.386C85.1937 38.2633 85.742 39.031 86.4 39.689C87.0893 40.3157 87.857 40.8013 88.703 41.146C89.5803 41.4907 90.489 41.663 91.429 41.663C92.1183 41.663 92.792 41.5847 93.45 41.428C94.1393 41.24 94.766 40.9893 95.33 40.676C95.894 40.3313 96.3953 39.924 96.834 39.454C97.2727 38.984 97.6173 38.467 97.868 37.903L102.286 39.172C101.44 41.0207 100.03 42.5403 98.056 43.731C96.1133 44.8903 93.8417 45.47 91.241 45.47ZM98.714 30.853C98.62 29.819 98.3537 28.8633 97.915 27.986C97.5077 27.1087 96.975 26.3723 96.317 25.777C95.659 25.1503 94.8913 24.6647 94.014 24.32C93.1367 23.9753 92.2123 23.803 91.241 23.803C90.2697 23.803 89.3453 23.9753 88.468 24.32C87.622 24.6647 86.87 25.1503 86.212 25.777C85.554 26.3723 85.0213 27.1087 84.614 27.986C84.2067 28.8633 83.956 29.819 83.862 30.853H98.714Z" fill="black"/>
<rect x="93.5421" y="9.44934" width="16" height="9.92857" rx="0.5" transform="rotate(23.0431 93.5421 9.44934)" stroke="black"/>
<line x1="91.0969" y1="13.9204" x2="106.74" y2="20.5746" stroke="black"/>
<circle cx="99.6736" cy="15.4728" r="1.21429" transform="rotate(23.0431 99.6736 15.4728)" fill="black"/>
<rect x="99.7586" y="8.79467" width="5.67857" height="2.64286" rx="0.5" transform="rotate(23.0431 99.7586 8.79467)" stroke="black"/>
</svg>
